PathFileType	4	(X/Y/Z)	S01_0013_Gait_markers.trc
DataRate	CameraRate	NumFrames	NumMarkers	Units	OrigDataRate	OrigDataStartFrame	OrigNumFrames
250.000000	250.000000	4	54	mm	250.000000	130	349
Frame#	Time	HEAD_ANT			R_HEAD			L_HEAD			C7			R_BACK			L_BACK			STERNUM			R_ACROMION			R_HUM_PROX			R_HUM_ANT			R_HUM_POST			R_ELBOW_LAT			R_ELBOW_MED			R_FOREARM			R_WIRST_LAT			R_WRITS_MED			R_HAND			L_ACROMION			L_HUM_PROX			L_HUM_ANT			L_HUM_POST			L_ELBOW_LAT			L_ELBOW_MED			L_FOREARM			L_WRIST_LAT			L_WIRST_MED			L_HAND			R_ILIAC			SACRUM			L_ILIAC			R_GTROCH			R_THIGH__1			R_THIGH_2			R_THIGH_3			R_THIGH_4			R_SHANK_1			R_SHANK_2			R_SHANK_3			R_SHANK_4			R_HEEL			R_FOOT_LAT			R_FOOT_MED			L_GTROCH			L_THIGH_1			L_THIGH_2			L_THIGH_3			L_THIGH_4			L_SHANK_1			L_SHANK_2			L_SHANK_3			L_SHANK_4			L_HEEL			L_FOOT_LAT			L_FOOT_MED			
		X1	Y1	Z1	X2	Y2	Z2	X3	Y3	Z3	X4	Y4	Z4	X5	Y5	Z5	X6	Y6	Z6	X7	Y7	Z7	X8	Y8	Z8	X9	Y9	Z9	X10	Y10	Z10	X11	Y11	Z11	X12	Y12	Z12	X13	Y13	Z13	X14	Y14	Z14	X15	Y15	Z15	X16	Y16	Z16	X17	Y17	Z17	X18	Y18	Z18	X19	Y19	Z19	X20	Y20	Z20	X21	Y21	Z21	X22	Y22	Z22	X23	Y23	Z23	X24	Y24	Z24	X25	Y25	Z25	X26	Y26	Z26	X27	Y27	Z27	X28	Y28	Z28	X29	Y29	Z29	X30	Y30	Z30	X31	Y31	Z31	X32	Y32	Z32	X33	Y33	Z33	X34	Y34	Z34	X35	Y35	Z35	X36	Y36	Z36	X37	Y37	Z37	X38	Y38	Z38	X39	Y39	Z39	X40	Y40	Z40	X41	Y41	Z41	X42	Y42	Z42	X43	Y43	Z43	X44	Y44	Z44	X45	Y45	Z45	X46	Y46	Z46	X47	Y47	Z47	X48	Y48	Z48	X49	Y49	Z49	X50	Y50	Z50	X51	Y51	Z51	X52	Y52	Z52	X53	Y53	Z53	X54	Y54	Z54	

131	0.52	798.2037353515625	1738.421997070312	-279.625335693359	741.923828125	1685.98828125	-201.1831817626949	736.3934326171875	1693.381225585938	-349.4065246582027	601.9563598632812	1521.042114257812	-273.3085632324215	533.629150390625	1326.093872070312	-199.3865661621091	522.223876953125	1329.239013671875	-343.596984863281	779.2296142578125	1359.037109375	-292.1799316406247	694.8161010742188	1469.617431640625	-110.3519287109372	682.412353515625	1307.21142578125	-19.3438892364499	749.9501953125	1226.735961914062	-33.34674835205051	633.8345947265625	1218.861083984375	3.92663598060635	688.1130981445312	1116.720458984375	-4.965593814849606	646.5531005859375	1112.4111328125	-77.74099731445288	812.5692749023438	951.2122802734375	-41.0570945739744	849.8539428710938	894.2979125976562	-94.19736480712871	798.193115234375	859.0674438476562	-42.02136611938457	881.3864135742188	808.0316162109375	-47.13030242919904	666.0377197265625	1480.096069335938	-448.0025024414059	620.3348388671875	1319.710327148438	-546.9220581054684	675.3483276367188	1234.947021484375	-561.150451660156	551.7068481445312	1247.546752929688	-565.3710937499998	603.047119140625	1139.434814453125	-585.735656738281	558.5703735351562	1135.520629882813	-522.9506225585935	694.4293212890625	957.1422119140626	-589.840393066406	729.9959716796875	892.1185913085939	-544.7680664062498	674.5023803710938	876.5049438476564	-600.913635253906	746.0802612304688	812.9992675781251	-598.3475341796873	669.6910400390625	1072.070068359375	-116.7009811401365	539.4124145507812	1045.25732421875	-285.4000854492185	652.8952026367188	1070.603393554688	-458.807922363281	608.6322021484375	933.0928955078125	-104.2004928588865	575.37548828125	660.2864990234375	-136.4012451171874	633.9310302734375	662.36279296875	-130.0558319091795	615.049560546875	563.7689208984375	-168.6491241455077	553.5945434570312	584.0340576171875	-160.9747161865233	477.0385437011719	359.7602539062501	-174.4847717285155	527.973876953125	329.8472595214844	-186.567398071289	509.0824890136719	248.865707397461	-210.7758789062499	447.6238708496094	266.6105346679688	-204.5380249023437	377.2412719726562	71.87079620361335	-304.5547485351562	526.9771118164062	18.4214305877686	-207.9680480957031	592.7998046875	32.04433441162116	-302.4080505371094	634.0925903320312	954.7312011718751	-470.0455322265623	820.8103637695312	702.3858642578126	-459.9627075195311	764.548828125	702.2197875976564	-478.7101135253905	784.9407348632812	600.3456420898439	-449.6530456542968	844.0252685546875	624.3247680664064	-437.8144226074218	849.5509643554688	349.2344055175782	-445.0460815429687	794.577392578125	323.4099731445314	-448.1423645019531	798.2584838867188	237.4157257080079	-434.3143310546874	860.482177734375	248.361053466797	-426.5710449218749	775.6580810546875	44.12712097167977	-366.9705505371094	952.742431640625	35.59387207031259	-430.9367980957031	984.528076171875	54.52676010131844	-337.0748596191406	
132	0.524	803.5208740234375	1737.45947265625	-280.2839660644527	747.1943969726562	1685.07666015625	-201.7116241455074	741.74267578125	1692.268798828125	-349.7910766601559	607.1154174804688	1520.031494140625	-273.5295715332028	538.9090576171875	1325.068359375	-199.2698211669919	528.485107421875	1328.345703125	-343.351379394531	784.2838745117188	1357.95068359375	-292.5216064453122	700.2105102539062	1468.791870117188	-110.6806793212887	688.2467651367188	1306.650390625	-18.67074203491182	756.0798950195312	1226.235961914062	-33.65859603881809	640.0786743164062	1217.972900390625	4.061203956604274	694.6156616210938	1116.054809570312	-4.979668617248287	652.7940673828125	1111.511474609375	-77.59951782226538	819.3173828125	950.7438354492188	-41.19138717651346	856.4749755859375	893.7465209960938	-94.67645263671855	805.3027954101562	858.5860595703125	-41.91384506225567	888.4544067382812	807.718994140625	-47.25671005249006	671.0147705078125	1478.943725585938	-448.2848815917965	625.2631225585938	1318.639770507813	-547.1015014648434	680.1635131835938	1233.85693359375	-560.1979370117185	556.2896728515625	1246.726440429688	-565.6649780273435	607.6893310546875	1138.4375	-585.8593749999998	561.02197265625	1135.069091796875	-523.231750488281	699.1658935546875	956.0725708007814	-589.6029663085935	734.83251953125	891.2016601562501	-544.4603881835935	679.2948608398438	875.4854125976564	-600.529113769531	750.9537353515625	811.9255371093751	-598.0079956054685	675.0614624023438	1071.0390625	-116.7434997558591	544.6184692382812	1044.401611328125	-285.7928771972654	658.5673217773438	1069.76708984375	-458.9215698242185	613.3590698242188	932.66650390625	-104.3450469970701	578.4141845703125	660.299072265625	-136.6986999511717	636.983642578125	662.064208984375	-130.0057373046874	617.5215454101562	563.4591674804688	-168.7638702392577	556.3466796875	584.083251953125	-161.2115478515624	478.5523071289062	360.1013793945313	-174.6874237060546	529.3502197265625	329.9094848632813	-186.6720581054687	510.1336669921875	249.1363983154297	-210.775650024414	448.7547912597656	267.1639404296876	-204.7181243896484	377.5863342285156	72.6482238769532	-304.8288879394531	526.92333984375	18.45437622070317	-208.0856018066406	592.943603515625	32.04492187500006	-302.3784484863281	639.4532470703125	953.8153076171876	-470.2800292968748	825.8130493164062	701.1854858398439	-460.1077270507811	769.1918334960938	700.7464599609376	-478.1950683593748	789.744140625	599.1524047851564	-449.0523681640624	848.651611328125	623.2540283203126	-437.2977905273436	858.6962890625	348.9010314941407	-443.7923583984374	803.8753051757812	321.9357910156251	-446.7135009765624	809.8143920898438	235.9210815429688	-432.8971557617187	871.9769897460938	248.6968536376954	-425.9146423339843	792.3578491210938	42.70817947387703	-364.5702209472656	969.0923461914062	36.72395706176767	-430.0476379394531	1000.967041015625	56.58710098266609	-336.4967346191406	
133	0.528	808.8930053710938	1736.447143554688	-280.7261047363277	752.4942016601562	1684.214599609375	-202.1704254150387	747.1961669921875	1691.171264648438	-350.1736450195309	612.3682861328125	1519.100219726562	-273.6462402343747	544.0343627929688	1324.262939453125	-199.2866058349607	533.6382446289062	1327.275634765625	-343.3693847656247	789.4649047851562	1356.94580078125	-292.9689025878903	705.5824584960938	1467.892578125	-110.9554824829098	694.2711791992188	1305.8974609375	-18.86950111389131	762.031494140625	1225.254516601562	-33.87739562988254	646.254150390625	1217.031494140625	4.084217548370631	701.070556640625	1115.252319335938	-5.007618427276364	659.165771484375	1110.431274414062	-77.44536590576148	825.9942626953125	950.12451171875	-41.4129180908201	863.1143798828125	893.1969604492188	-94.70023345947246	812.2584838867188	858.0179443359375	-41.8508644104002	895.5333862304688	807.4120483398438	-47.56060028076154	675.9511108398438	1477.954467773438	-448.3388977050778	630.1359252929688	1317.535522460938	-547.0527343749997	684.7850952148438	1232.8662109375	-560.2235107421873	561.0968627929688	1245.44091796875	-565.556457519531	609.8301391601562	1138.342651367188	-586.7794189453123	565.7889404296875	1134.326904296875	-522.8255615234373	703.951171875	955.0785522460939	-589.2456054687498	739.439697265625	890.3162841796876	-544.263244628906	683.9051513671875	874.4593505859376	-600.422912597656	755.7027587890625	810.8635253906251	-597.562316894531	679.9793701171875	1070.097290039062	-116.9371185302732	549.8729248046875	1043.4189453125	-286.0088195800779	665.1337890625	1069.11083984375	-459.3109130859373	618.1054077148438	932.1239013671875	-104.4079055786131	581.5789184570312	660.2789306640625	-136.9193725585936	640.1317138671875	661.8099365234375	-130.180206298828	620.5466918945312	563.3817749023438	-168.3217468261718	559.1940307617188	584.3314208984375	-161.2489624023436	480.0947875976562	360.4697265625001	-174.8099365234374	530.816650390625	329.8974914550782	-186.7044067382812	511.1962280273438	249.2506713867188	-210.9304656982421	449.9354248046875	267.7869567871094	-204.8365173339843	377.8648986816406	73.43479919433601	-304.9902038574219	526.5086669921875	18.54803657531743	-208.5155029296875	593.0467529296875	31.99665641784675	-302.3873901367188	644.821533203125	952.7046508789064	-470.4049682617185	830.177490234375	698.9921875000001	-459.1441040039061	773.8206787109375	698.9156494140626	-477.5379943847655	794.7789306640625	597.4539184570314	-447.9347534179686	852.73876953125	622.7389526367189	-437.7151489257811	867.4067993164062	348.7126464843751	-443.0253295898437	813.5929565429688	320.5355834960939	-445.3766479492187	821.3641967773438	234.6173553466798	-431.5091247558593	883.2484741210938	248.715316772461	-424.8683166503906	808.587158203125	41.43340682983406	-362.8918762207031	985.15576171875	38.34538269042978	-429.1730041503906	1017.341735839844	58.77677917480476	-335.764892578125	
134	0.532	814.1767578125	1735.557250976562	-281.1677246093746	757.8298950195312	1683.353271484375	-202.5618286132809	752.5442504882812	1690.171020507812	-350.7406005859371	617.5823364257812	1518.119873046875	-273.8460693359372	549.2593994140625	1323.351196289062	-199.2341613769528	538.055419921875	1326.338989257812	-343.501770019531	794.6075439453125	1355.786499023438	-293.0169677734372	710.9972534179688	1466.947265625	-111.2898483276364	700.1602783203125	1305.082153320312	-19.23591232299776	768.1035766601562	1224.720703125	-34.14737701415989	652.4730224609375	1216.17578125	4.002272605896266	707.5181884765625	1114.5517578125	-5.135997295379391	665.3504638671875	1109.454345703125	-77.48892211914038	832.6909790039062	949.571533203125	-41.70293807983377	869.82568359375	892.6998901367188	-95.0235595703123	819.1968383789062	857.4119262695312	-41.74473953247051	902.5327758789062	806.9494018554688	-47.74105453491193	680.949951171875	1476.876831054688	-448.6786804199215	634.819580078125	1316.58935546875	-547.1786499023434	689.7374877929688	1231.813720703125	-561.7803955078123	565.8607177734375	1244.551513671875	-565.2506713867185	617.1192016601562	1136.239868164063	-585.874572753906	574.624267578125	1132.52880859375	-522.9962768554685	708.5924682617188	953.8959350585939	-589.3673095703123	744.3226928710938	889.4373168945314	-543.9970092773435	688.8343505859375	873.2744750976564	-600.188537597656	760.3917236328125	809.8165283203126	-597.3717041015623	685.1983032226562	1068.982788085938	-116.9399337768552	555.2180786132812	1042.444091796875	-286.6322021484373	670.484375	1068.13916015625	-459.464904785156	622.8324584960938	931.59716796875	-104.441940307617	584.8546142578125	660.3468627929688	-137.075714111328	643.4080200195312	661.60693359375	-130.063507080078	623.4752197265625	563.2467041015625	-168.1383361816405	562.2023315429688	584.4110107421875	-161.4416656494139	481.8923034667969	360.8583679199219	-174.9541015624999	532.4196166992188	329.9852294921876	-186.6678161621093	512.3898315429688	249.4141693115235	-210.949478149414	451.3355102539062	268.2864379882813	-204.9117431640624	378.1319274902344	74.29182434082038	-305.1598510742188	526.6145629882812	18.63326263427739	-208.3417816162109	593.17822265625	32.12707901000983	-302.8123779296875	650.224609375	951.5568847656251	-470.4446105957029	834.9772338867188	698.2763671875001	-459.4336547851561	778.7160034179688	697.8582153320314	-477.9791259765623	799.551025390625	595.9975585937501	-447.5386962890624	857.3945922851562	621.5286254882814	-437.250274658203	876.4354858398438	348.7199707031251	-442.1793823242187	822.76220703125	319.2310485839845	-444.0254211425781	832.7410278320312	233.5308837890626	-430.1690368652343	894.502685546875	248.9923553466798	-423.9682312011718	824.6853637695312	40.69502258300789	-361.0579833984375	1000.968933105469	40.29081726074228	-428.0610046386719	1033.246337890625	61.25893402099616	-335.1552734375	
